<svg width="112px" height="32px" viewBox="0 0 112 32" version="1.1" xmlns="http://www.w3.org/2000/svg" xmlns:xlink="http://www.w3.org/1999/xlink">
    <g id="Symbols" stroke="none" stroke-width="1" fill="none" fill-rule="evenodd">
        <g id="style/logo/mobile_top">
            <g id="Group" transform="translate(2.000000, 0.000000)">
                <path d="M65.3224443,16.385269 L68.5774355,19.7923661 C69.6323504,20.9144896 70.1646516,22.291154 70.1646516,23.8902067 L70.1646516,26.9998928 L66.9509597,26.9998928 L66.9509597,23.8902067 C66.9509597,23.2005349 66.7363056,22.644296 66.2769154,22.1421806 L63.061184,18.7511598 L59.7394003,22.2541786 C59.2810298,22.7530787 59.0673956,23.303423 59.0673956,23.9909514 L59.0673956,26.9998928 L55.8531938,26.9998928 L55.8531938,23.9920231 C55.8531938,22.3994008 56.396712,21.0264876 57.4664131,19.9091869 L60.7729008,16.3890202 L57.4852781,12.9411966 C56.4186363,11.8222883 55.879197,10.4450881 55.879197,8.84764291 L55.879197,6 L59.0939086,6 L59.0939086,8.84174828 C59.0939086,9.51266453 59.3055035,10.0474684 59.7664233,10.5201106 L59.7766206,10.5335075 L63.0673024,14.0091966 L66.2733464,10.6567589 C66.727128,10.1809014 66.9371932,9.63752354 66.9371932,8.95321041 L66.9371932,6 L70.1508852,6 L70.1508852,8.95321041 C70.1508852,10.5511914 69.6124656,11.9251765 68.5488829,13.0451565 L65.3224443,16.385269 Z M73.3825244,6.00010718 L87.7322223,6.00010718 L87.7322223,9.34772202 L82.1394908,9.34772202 L82.1394908,27 L78.9247791,27 L78.9247791,9.34772202 L73.3825244,9.34772202 L73.3825244,6.00010718 Z M109,6.00010718 L109,27 L105.81792,27 L105.81792,11.4622871 L101.133262,21.1273394 L98.823054,21.1273394 L94.129218,11.4622871 L94.129218,27 L90.9445885,27 L90.9445885,6.00010718 L95.1051035,6.0017148 L99.9722943,16.3757304 L104.855801,6.0017148 L109,6.00010718 Z M45.6564649,9.34043411 C44.3455967,9.42563833 43.2957805,10.5279344 43.2152215,11.904063 L43.2152215,14.716874 L50.9534735,14.716874 L50.9534735,18.063417 L43.2152215,18.063417 L43.2152215,26.9996785 L40,26.9996785 L40,12.1178773 C40,8.73757407 42.6049107,6.00032153 45.8180927,6.00032153 L52.6615281,6.00032153 L52.6615281,9.34043411 L45.6564649,9.34043411 Z" id="Combined-Shape-Copy" fill="#FFFFFF"></path>
                <g id="style/logo/Ball">
                    <g id="Group">
                        <path d="M14.5575009,7.14120401 L14.56473,7.14842851 L19.8250964,12.4309824 L25.052209,7.17732651 C25.42523,6.79924438 25.7274058,6.40478672 25.9688574,5.97998616 C26.2758526,5.43718544 26.4840504,4.86356019 26.5756188,4.23021242 C23.7861547,1.75028262 20.1099225,0.241807161 16.0818746,0.241807161 C15.0008849,0.241807161 13.946402,0.351137917 12.9266186,0.557276965 L12.9266186,3.02131287 L12.9266186,3.24190091 C12.9266186,4.19408992 13.1309608,5.04176451 13.5435008,5.80707981 C13.8013383,6.28197023 14.136768,6.72603612 14.5575009,7.14120401" id="Fill-10" fill="#A4E22D" fill-rule="nonzero"></path>
                        <path d="M29.0225977,7.0250585 C30.8356968,9.59500734 31.9038382,12.7354135 31.9038382,16.1258766 C31.9038382,19.1135505 31.0732753,21.9113932 29.6333764,24.293438 C29.4034928,23.1255423 28.9480538,22.0559348 28.2617694,21.0879882 C27.9881213,20.6986896 27.6764798,20.3248087 27.3292497,19.9697183 L22.0558726,14.7069603 L27.2984703,9.47455604 L27.3037605,9.46925619 C27.6634948,9.10501147 27.9842738,8.72342177 28.2675405,8.32159624 C28.5623495,7.90724379 28.8133939,7.47554634 29.0225977,7.0250585 Z M12.391814,9.47431514 L17.6406638,14.7096103 L12.3961424,19.9897132 C11.9748494,20.4084019 11.6079012,20.8535899 11.2919314,21.3223864 C10.3488313,22.7186578 9.87415524,24.3245145 9.87415524,26.1163479 L9.87415524,26.4218124 L9.87415524,26.9638433 L9.87415524,30.6217082 C4.2814419,28.1953373 0.372457977,22.6160333 0.372457977,16.1261175 C0.372457977,9.63186544 4.28336561,4.05497045 9.87415524,1.62859956 L9.87415524,2.48958542 L9.87415524,3.11159591 L9.87415524,3.33900795 C9.87415524,5.1192781 10.3420983,6.71646228 11.2683659,8.10839745 C11.5886641,8.58827541 11.9618643,9.04502672 12.391814,9.47431514 Z M25.0936552,22.118184 C25.4625271,22.5026645 25.7736876,22.9121989 26.0136708,23.3405237 C26.4758427,24.168265 26.7254444,25.0938128 26.7254444,26.1205396 L26.6850465,27.8627472 C25.7260757,28.7275875 24.6588962,29.47824 23.5065924,30.0910962 C21.3053843,31.2585101 18.7997487,31.919065 16.1387733,31.919065 C15.0600515,31.919065 14.0063379,31.8106588 12.9901367,31.602519 L12.9901367,28.9574086 L12.9901367,26.4216679 L12.9901367,26.1142762 C12.9901367,25.1545203 13.1940503,24.2882345 13.6047629,23.5019285 C13.8601358,23.0191597 14.1910143,22.5686718 14.6175976,22.140347 L19.8856844,16.8828889 L25.0936552,22.118184 Z" id="Combined-Shape" fill="#FF5A24" fill-rule="nonzero"></path>
                    </g>
                </g>
            </g>
        </g>
    </g>
</svg>